<svg width="181" height="40" viewBox="0 0 181 40" fill="none" xmlns="http://www.w3.org/2000/svg">
<path d="M10 0.5H170.082C175.329 0.5 179.582 4.7533 179.582 10V30C179.582 35.2467 175.329 39.5 170.082 39.5H10C4.7533 39.5 0.5 35.2467 0.5 30V10C0.5 4.7533 4.75329 0.5 10 0.5Z" fill="#0B0C7D"/>
<path d="M10 0.5H170.082C175.329 0.5 179.582 4.7533 179.582 10V30C179.582 35.2467 175.329 39.5 170.082 39.5H10C4.7533 39.5 0.5 35.2467 0.5 30V10C0.5 4.7533 4.75329 0.5 10 0.5Z" stroke="#0B0C7D"/>
<path d="M26.4 24H24.416L23.632 21.744H18.864L18.08 24H16.08L20.144 12.8H22.352L26.4 24ZM21.248 14.96L19.472 20.016H23.024L21.248 14.96ZM33.6253 17.136V12.8H35.3533V24H33.6253V22.848C32.9746 23.7547 32.0413 24.208 30.8253 24.208C29.7266 24.208 28.7879 23.8027 28.0093 22.992C27.2306 22.1813 26.8413 21.184 26.8413 20C26.8413 18.816 27.2306 17.8187 28.0093 17.008C28.7879 16.1973 29.7266 15.792 30.8253 15.792C32.0413 15.792 32.9746 16.24 33.6253 17.136ZM29.2893 21.84C29.7693 22.32 30.3719 22.56 31.0973 22.56C31.8226 22.56 32.4253 22.32 32.9053 21.84C33.3853 21.3493 33.6253 20.736 33.6253 20C33.6253 19.264 33.3853 18.656 32.9053 18.176C32.4253 17.6853 31.8226 17.44 31.0973 17.44C30.3719 17.44 29.7693 17.6853 29.2893 18.176C28.8093 18.656 28.5693 19.264 28.5693 20C28.5693 20.7253 28.8093 21.3387 29.2893 21.84ZM43.7034 17.136V12.8H45.4314V24H43.7034V22.848C43.0527 23.7547 42.1194 24.208 40.9034 24.208C39.8047 24.208 38.866 23.8027 38.0874 22.992C37.3087 22.1813 36.9194 21.184 36.9194 20C36.9194 18.816 37.3087 17.8187 38.0874 17.008C38.866 16.1973 39.8047 15.792 40.9034 15.792C42.1194 15.792 43.0527 16.24 43.7034 17.136ZM39.3674 21.84C39.8474 22.32 40.45 22.56 41.1754 22.56C41.9007 22.56 42.5034 22.32 42.9834 21.84C43.4634 21.3493 43.7034 20.736 43.7034 20C43.7034 19.264 43.4634 18.656 42.9834 18.176C42.5034 17.6853 41.9007 17.44 41.1754 17.44C40.45 17.44 39.8474 17.6853 39.3674 18.176C38.8874 18.656 38.6474 19.264 38.6474 20C38.6474 20.7253 38.8874 21.3387 39.3674 21.84ZM55.6535 15.792C56.5815 15.792 57.3228 16.0907 57.8775 16.688C58.4428 17.2747 58.7255 18.0747 58.7255 19.088V24H56.9975V19.264C56.9975 18.6667 56.8375 18.208 56.5175 17.888C56.1975 17.568 55.7602 17.408 55.2055 17.408C54.5762 17.408 54.0802 17.6053 53.7175 18C53.3548 18.384 53.1735 18.9547 53.1735 19.712V24H51.4455V16H53.1735V17.024C53.7068 16.2027 54.5335 15.792 55.6535 15.792ZM68.3141 20.736H61.9461C62.0741 21.3333 62.3621 21.7973 62.8101 22.128C63.2688 22.4587 63.8341 22.624 64.5061 22.624C65.4128 22.624 66.1008 22.2933 66.5701 21.632L67.9941 22.464C67.2155 23.6267 66.0475 24.208 64.4901 24.208C63.1995 24.208 62.1488 23.8133 61.3381 23.024C60.5381 22.224 60.1381 21.216 60.1381 20C60.1381 18.816 60.5328 17.8187 61.3221 17.008C62.1008 16.1973 63.1141 15.792 64.3621 15.792C65.5248 15.792 66.4848 16.2027 67.2421 17.024C67.9995 17.8453 68.3781 18.8427 68.3781 20.016C68.3781 20.2293 68.3568 20.4693 68.3141 20.736ZM61.9301 19.328H66.6341C66.5168 18.6987 66.2501 18.2133 65.8341 17.872C65.4288 17.5307 64.9328 17.36 64.3461 17.36C63.7061 17.36 63.1728 17.536 62.7461 17.888C62.3195 18.24 62.0475 18.72 61.9301 19.328ZM77.2341 21.52L78.8021 16H80.6261L78.1141 24H76.4181L74.7541 18.608L73.0741 24H71.3781L68.8661 16H70.6901L72.2421 21.52L73.9221 16H75.5701L77.2341 21.52ZM90.4266 15.792C91.5146 15.792 92.4533 16.2027 93.2426 17.024C94.0213 17.8347 94.4106 18.8267 94.4106 20C94.4106 21.184 94.0213 22.1813 93.2426 22.992C92.464 23.8027 91.5253 24.208 90.4266 24.208C89.2213 24.208 88.288 23.76 87.6266 22.864V27.2H85.8986V16H87.6266V17.152C88.2773 16.2453 89.2106 15.792 90.4266 15.792ZM88.3466 21.84C88.8266 22.32 89.4293 22.56 90.1546 22.56C90.88 22.56 91.4826 22.32 91.9626 21.84C92.4426 21.3493 92.6826 20.736 92.6826 20C92.6826 19.264 92.4426 18.656 91.9626 18.176C91.4826 17.6853 90.88 17.44 90.1546 17.44C89.4293 17.44 88.8266 17.6853 88.3466 18.176C87.8666 18.656 87.6266 19.264 87.6266 20C87.6266 20.7253 87.8666 21.3387 88.3466 21.84ZM102.313 17.136V16H104.041V24H102.313V22.848C101.662 23.7547 100.729 24.208 99.5128 24.208C98.4141 24.208 97.4754 23.8027 96.6968 22.992C95.9181 22.1813 95.5288 21.184 95.5288 20C95.5288 18.816 95.9181 17.8187 96.6968 17.008C97.4754 16.1973 98.4141 15.792 99.5128 15.792C100.729 15.792 101.662 16.24 102.313 17.136ZM97.9768 21.84C98.4568 22.32 99.0594 22.56 99.7848 22.56C100.51 22.56 101.113 22.32 101.593 21.84C102.073 21.3493 102.313 20.736 102.313 20C102.313 19.264 102.073 18.656 101.593 18.176C101.113 17.6853 100.51 17.44 99.7848 17.44C99.0594 17.44 98.4568 17.6853 97.9768 18.176C97.4968 18.656 97.2568 19.264 97.2568 20C97.2568 20.7253 97.4968 21.3387 97.9768 21.84ZM110.519 16V17.664H108.535V21.504C108.535 21.8347 108.61 22.0747 108.759 22.224C108.908 22.3627 109.127 22.4427 109.415 22.464C109.714 22.4747 110.082 22.4693 110.519 22.448V24C109.196 24.16 108.247 24.048 107.671 23.664C107.095 23.2693 106.807 22.5493 106.807 21.504V17.664H105.335V16H106.807V14.272L108.535 13.76V16H110.519ZM113.718 14.48C113.505 14.6933 113.249 14.8 112.95 14.8C112.651 14.8 112.39 14.6933 112.166 14.48C111.953 14.256 111.846 13.9947 111.846 13.696C111.846 13.3973 111.953 13.1413 112.166 12.928C112.379 12.704 112.641 12.592 112.95 12.592C113.259 12.592 113.521 12.704 113.734 12.928C113.947 13.1413 114.054 13.3973 114.054 13.696C114.054 13.9947 113.942 14.256 113.718 14.48ZM113.814 24H112.086V16H113.814V24ZM123.549 20.736H117.181C117.309 21.3333 117.597 21.7973 118.045 22.128C118.503 22.4587 119.069 22.624 119.741 22.624C120.647 22.624 121.335 22.2933 121.805 21.632L123.229 22.464C122.45 23.6267 121.282 24.208 119.725 24.208C118.434 24.208 117.383 23.8133 116.573 23.024C115.773 22.224 115.373 21.216 115.373 20C115.373 18.816 115.767 17.8187 116.557 17.008C117.335 16.1973 118.349 15.792 119.597 15.792C120.759 15.792 121.719 16.2027 122.477 17.024C123.234 17.8453 123.613 18.8427 123.613 20.016C123.613 20.2293 123.591 20.4693 123.549 20.736ZM117.164 19.328H121.869C121.751 18.6987 121.485 18.2133 121.069 17.872C120.663 17.5307 120.167 17.36 119.581 17.36C118.941 17.36 118.407 17.536 117.981 17.888C117.554 18.24 117.282 18.72 117.164 19.328ZM129.341 15.792C130.269 15.792 131.01 16.0907 131.565 16.688C132.13 17.2747 132.413 18.0747 132.413 19.088V24H130.685V19.264C130.685 18.6667 130.525 18.208 130.205 17.888C129.885 17.568 129.448 17.408 128.893 17.408C128.264 17.408 127.768 17.6053 127.405 18C127.042 18.384 126.861 18.9547 126.861 19.712V24H125.133V16H126.861V17.024C127.394 16.2027 128.221 15.792 129.341 15.792ZM138.738 16V17.664H136.754V21.504C136.754 21.8347 136.828 22.0747 136.978 22.224C137.127 22.3627 137.346 22.4427 137.634 22.464C137.932 22.4747 138.3 22.4693 138.738 22.448V24C137.415 24.16 136.466 24.048 135.89 23.664C135.314 23.2693 135.026 22.5493 135.026 21.504V17.664H133.554V16H135.026V14.272L136.754 13.76V16H138.738Z" fill="white"/>
<path fill-rule="evenodd" clip-rule="evenodd" d="M148 20C148 15.5817 151.6 12 156.041 12C160.482 12 164.082 15.5817 164.082 20C164.082 24.4183 160.482 28 156.041 28C151.6 28 148 24.4183 148 20ZM155.505 23.7333V20.5333H152.289V19.4667H155.505V16.2667H156.577V19.4667H159.794V20.5333H156.577V23.7333H155.505Z" fill="white"/>
</svg>
