<svg width="17" height="16" viewBox="0 0 17 16" fill="none" xmlns="http://www.w3.org/2000/svg">
<path fill-rule="evenodd" clip-rule="evenodd" d="M15.3918 2.13333H13.7836V0H12.7114V2.13333H5.20643V0H4.13428V2.13333H2.52606C1.63787 2.13333 0.917847 2.84968 0.917847 3.73333V14.4C0.917847 15.2837 1.63787 16 2.52606 16H15.3918C16.28 16 17 15.2837 17 14.4V3.73333C17 2.84968 16.28 2.13333 15.3918 2.13333ZM4.67035 9.63333C4.67035 9.90948 4.89421 10.1333 5.17035 10.1333H7.88679V12.8333C7.88679 13.1095 8.11064 13.3333 8.38679 13.3333H9.53108C9.80722 13.3333 10.0311 13.1095 10.0311 12.8333V10.1333H12.7475C13.0237 10.1333 13.2475 9.90948 13.2475 9.63333V8.5C13.2475 8.22386 13.0237 8 12.7475 8H10.0311V5.3C10.0311 5.02386 9.80722 4.8 9.53108 4.8H8.38679C8.11064 4.8 7.88679 5.02386 7.88679 5.3V8H5.17035C4.89421 8 4.67035 8.22386 4.67035 8.5V9.63333Z" fill="white"/>
</svg>
